<svg width="16" height="16" viewBox="0 0 16 16" fill="none" xmlns="http://www.w3.org/2000/svg">
<path d="M0 9.81018V9.7705V0.611965C0 0.597245 0 0.582418 0 0.567484C0.00518159 0.489117 0.0270918 0.412458 0.064478 0.34189C0.101864 0.271323 0.153993 0.208231 0.217884 0.156221C0.281776 0.104212 0.356176 0.0643048 0.436832 0.0387821C0.517489 0.0132593 0.602819 0.00262135 0.687944 0.00747629C2.1643 0.115023 3.60254 0.492524 4.9185 1.11789C6.06176 1.73786 7.09867 2.51067 7.99531 3.41105C8.89448 2.50732 9.93471 1.73177 11.0818 1.10989C12.3981 0.483821 13.8368 0.105771 15.3138 -0.00212384C15.4853 -0.0114928 15.6539 0.0421301 15.7825 0.146988C15.9111 0.251845 15.9893 0.39938 16 0.557244C16 0.568978 16 0.580711 16 0.592445C16 0.598845 16 0.605245 16 0.611645V9.41657C16 9.48921 15.8074 15.8106 8.18128 15.9943L8.04224 15.9968C8.02833 15.9968 8.01419 15.9968 7.99983 15.9968H7.97375H7.85765C0.540205 15.9981 0.0062572 9.87322 0 9.81018ZM1.30011 9.74618C1.33487 10.11 1.8563 14.5334 7.34873 14.7949V13.1152C7.34873 13.1094 7.34873 13.1037 7.34873 13.0979V8.71384C7.34873 8.70808 7.34873 8.70232 7.34873 8.69656V4.53202C6.46925 3.59903 5.43647 2.7986 4.28792 2.15983C3.35288 1.71217 2.34315 1.41149 1.30045 1.27021L1.30011 9.74618ZM8.65162 14.7821C13.2646 14.4682 14.3599 11.454 14.6196 10.078C13.6052 10.2226 12.6232 10.5186 11.7124 10.9545C10.5634 11.5926 9.53055 12.393 8.65162 13.3264V14.7821ZM8.65162 11.6067C9.3817 10.9506 10.1985 10.3816 11.0829 9.91322C12.212 9.37102 13.4356 9.01523 14.6982 8.862V5.6642C13.6557 5.80576 12.646 6.10608 11.7107 6.55285C10.5622 7.19146 9.52993 7.99228 8.65162 8.926V11.6067ZM8.65162 7.20502C9.3817 6.54892 10.1985 5.97997 11.0829 5.51156C12.212 4.96937 13.4356 4.61358 14.6982 4.46034V1.27149C13.6557 1.41309 12.6461 1.71341 11.7107 2.16015C10.5617 2.79824 9.52883 3.59863 8.64988 4.53202L8.65162 7.20502Z" fill="#F54A24"/>
</svg>
