<svg width="202" height="40" viewBox="0 0 202 40" fill="none" xmlns="http://www.w3.org/2000/svg">
<g clip-path="url(#clip0_85_3780)">
<path d="M65.5848 16.5185C64.9928 15.3732 64.0828 14.4231 62.964 13.7825C61.9475 13.2308 60.8085 12.9436 59.652 12.9473C58.4312 12.9347 57.2305 13.2586 56.1816 13.8833C55.1348 14.5059 54.2775 15.402 53.7016 16.4753C53.0786 17.6593 52.7675 18.9825 52.7976 20.3201C52.7675 21.6559 53.0734 22.978 53.6872 24.1649C54.2488 25.2332 55.0899 26.129 56.1208 26.7569C57.1578 27.3834 58.3493 27.7076 59.5608 27.6929C60.427 27.6995 61.2867 27.5432 62.0952 27.2321C62.8604 26.9389 63.5638 26.5047 64.1688 25.9521C64.756 25.418 65.2365 24.7773 65.5848 24.0641V22.0481H59.796V19.2545H69.012V24.2657C68.5448 25.4661 67.845 26.5623 66.9528 27.4913C66.0302 28.4587 64.9238 29.2322 63.6984 29.7665C62.3859 30.3344 60.9684 30.6189 59.5384 30.6017C58.1724 30.6123 56.8172 30.358 55.548 29.8529C54.3339 29.3695 53.2277 28.65 52.2936 27.7361C51.3524 26.809 50.6079 25.7016 50.1048 24.4801C49.5649 23.1604 49.2956 21.7458 49.3128 20.3201C49.2971 18.9033 49.5665 17.4979 50.1048 16.1873C50.6103 14.9632 51.3543 13.852 52.2936 12.9185C53.2245 11.997 54.3313 11.2723 55.548 10.7873C56.8167 10.2823 58.1713 10.028 59.5368 10.0385C60.8012 10.0348 62.0571 10.2441 63.252 10.6577C64.4247 11.0594 65.5106 11.6799 66.452 12.4865C67.3933 13.2935 68.1329 14.3093 68.612 15.4529L65.5848 16.5185ZM71.6648 9.66406H74.9192V30.4001H71.6616L71.6648 9.66406ZM84.5672 30.6017C83.2704 30.6236 81.9898 30.3112 80.8488 29.6945C79.7688 29.1028 78.8805 28.2145 78.2888 27.1345C77.6505 25.9336 77.333 24.5884 77.3672 23.2289C77.3309 21.8523 77.6576 20.4904 78.3144 19.2801C78.925 18.1891 79.8342 17.2949 80.9352 16.7025C82.0763 16.0923 83.3533 15.7813 84.6472 15.7985C85.9474 15.7783 87.2311 16.0905 88.3768 16.7057C89.4727 17.3021 90.3841 18.1875 91.012 19.2657C91.6865 20.4535 92.025 21.8025 91.9912 23.1681C92.0281 24.5511 91.6856 25.9179 91.0008 27.1201C90.3625 28.2088 89.4355 29.0998 88.3224 29.6945C87.1665 30.307 85.8752 30.619 84.5672 30.6017ZM84.5352 27.6929C85.2049 27.6925 85.8637 27.523 86.4504 27.2001C87.0738 26.8556 87.5878 26.3428 87.9336 25.7201C88.3466 24.936 88.5453 24.0568 88.5096 23.1713C88.5403 22.308 88.352 21.451 87.9624 20.6801C87.6354 20.058 87.1352 19.544 86.5224 19.2001C85.9316 18.8747 85.2672 18.7062 84.5928 18.7105C83.941 18.7051 83.2997 18.8742 82.7352 19.2001C82.1457 19.5508 81.6705 20.0648 81.3672 20.6801C80.9929 21.4759 80.8151 22.35 80.8488 23.2289C80.8193 24.0873 80.9919 24.9406 81.3528 25.7201C81.6456 26.3333 82.111 26.8476 82.692 27.2001C83.2505 27.5281 83.8875 27.6984 84.5352 27.6929ZM97.3512 18.1313C97.8649 17.4332 98.5358 16.8659 99.3096 16.4753C100.236 16.0049 101.266 15.7723 102.305 15.7985C103.484 15.774 104.645 16.0943 105.646 16.7201C106.626 17.3571 107.408 18.2547 107.906 19.3121C108.476 20.5276 108.757 21.8581 108.727 23.2001C108.757 24.542 108.476 25.8726 107.906 27.0881C107.406 28.1484 106.618 29.0466 105.631 29.6801C104.635 30.3022 103.479 30.6223 102.305 30.6017C101.341 30.6296 100.385 30.4324 99.5112 30.0257C98.7995 29.6845 98.1631 29.2047 97.6392 28.6145L97.4088 30.4001H94.4712V9.66406H97.7256V18.2177L97.3512 18.1313ZM105.242 23.2001C105.295 22.0329 104.921 20.8864 104.191 19.9745C103.866 19.5767 103.455 19.2583 102.988 19.0437C102.521 18.8291 102.012 18.7239 101.498 18.7361C100.833 18.7288 100.18 18.9085 99.612 19.2545C99.0251 19.6225 98.5516 20.1458 98.244 20.7665C97.8772 21.5239 97.6994 22.3589 97.7256 23.2001C97.7004 24.0415 97.8793 24.8765 98.2472 25.6337C98.5548 26.2543 99.0283 26.7777 99.6152 27.1457C100.183 27.4917 100.837 27.6713 101.502 27.6641C102.015 27.6758 102.523 27.5703 102.99 27.3557C103.456 27.1411 103.867 26.823 104.191 26.4257C104.921 25.5137 105.295 24.3672 105.242 23.2001ZM119.614 30.4001L119.326 28.6401C118.895 29.2306 118.334 29.7145 117.687 30.0545C116.891 30.4146 116.022 30.5824 115.15 30.5441C114.259 30.5657 113.375 30.3937 112.558 30.0401C111.872 29.7412 111.287 29.2513 110.873 28.6289C110.471 27.997 110.266 27.2605 110.282 26.5121C110.271 25.9385 110.386 25.3694 110.617 24.8444C110.848 24.3194 111.191 23.8511 111.622 23.4721C112.739 22.565 114.115 22.0357 115.553 21.9601L119.326 21.5601V20.4401C119.32 20.2002 119.263 19.9642 119.159 19.7481C119.055 19.532 118.905 19.3408 118.721 19.1873C118.17 18.7661 117.482 18.5664 116.791 18.6273C116.084 18.6101 115.387 18.8051 114.791 19.1873C114.21 19.5825 113.803 20.1855 113.654 20.8721L110.831 19.8321C111.164 18.6083 111.939 17.5515 113.006 16.8657C114.191 16.1271 115.569 15.7563 116.966 15.8001C117.73 15.7413 118.498 15.8358 119.225 16.0782C119.952 16.3205 120.623 16.7058 121.199 17.2113C121.667 17.6835 122.034 18.2465 122.277 18.8655C122.519 19.4846 122.633 20.1467 122.61 20.8113V30.4001H119.614ZM119.326 24.0641L115.87 24.4961C115.274 24.5393 114.704 24.7544 114.228 25.1153C114.053 25.2608 113.913 25.4438 113.819 25.6507C113.724 25.8575 113.677 26.083 113.681 26.3105C113.68 26.5276 113.728 26.7422 113.82 26.9389C113.912 27.1355 114.046 27.3094 114.214 27.4481C114.622 27.7832 115.141 27.9528 115.668 27.9233C116.36 27.9441 117.046 27.7959 117.668 27.4913C118.2 27.2183 118.633 26.7851 118.906 26.2529C119.203 25.6335 119.346 24.9519 119.324 24.2657L119.326 24.0641ZM125.633 9.66406H128.887V30.4001H125.633V9.66406ZM133.294 25.5617C133.449 26.1434 133.713 26.6906 134.071 27.1745C134.497 27.7466 135.055 28.2063 135.698 28.5137C136.561 28.9023 137.503 29.0847 138.449 29.0465C139.726 29.1506 140.995 28.7587 141.991 27.9521C142.364 27.608 142.659 27.1888 142.858 26.7221C143.056 26.2554 143.154 25.7519 143.143 25.2449C143.172 24.5086 142.943 23.7853 142.495 23.2001C142.019 22.6287 141.416 22.1753 140.735 21.8753C139.93 21.505 139.097 21.1969 138.244 20.9537C137.457 20.7403 136.694 20.5051 135.954 20.2481C135.252 20.0063 134.581 19.6825 133.954 19.2833C133.37 18.911 132.886 18.4019 132.543 17.8001C132.176 17.1047 131.997 16.3252 132.025 15.5393C131.999 14.5196 132.269 13.5143 132.802 12.6449C133.341 11.8111 134.105 11.147 135.006 10.7297C136.057 10.2474 137.204 10.011 138.361 10.0385C139.363 10.0154 140.361 10.1865 141.298 10.5425C142.075 10.8449 142.773 11.3172 143.343 11.9249C143.864 12.4816 144.257 13.1449 144.495 13.8689L142.969 14.4449C142.783 13.9502 142.505 13.4956 142.148 13.1057C141.714 12.6267 141.184 12.245 140.593 11.9857C139.871 11.6722 139.09 11.5199 138.303 11.5393C137.522 11.5304 136.748 11.6824 136.028 11.9857C135.368 12.2588 134.796 12.7069 134.372 13.2817C133.951 13.8736 133.734 14.5861 133.753 15.3121C133.713 16.0435 133.961 16.7615 134.444 17.3121C134.958 17.8367 135.583 18.24 136.273 18.4929C137.031 18.7905 137.871 19.0737 138.793 19.3425C139.58 19.5921 140.343 19.8609 141.082 20.1489C141.78 20.4142 142.439 20.7727 143.041 21.2145C143.602 21.6313 144.065 22.1673 144.394 22.7841C144.75 23.4935 144.923 24.2804 144.898 25.0737C144.905 26.0278 144.672 26.9684 144.222 27.8097C143.745 28.6799 143.018 29.3872 142.135 29.8401C140.998 30.3923 139.741 30.6545 138.478 30.6033C137.34 30.6306 136.209 30.4299 135.151 30.0129C134.286 29.6657 133.512 29.1237 132.89 28.4289C132.326 27.7885 131.921 27.0237 131.71 26.1969L133.294 25.5617ZM149.105 16.0001V11.9681H150.746V16.0001H154.778V17.5265H150.746V26.0225C150.701 26.725 150.911 27.4203 151.337 27.9809C151.725 28.4392 152.259 28.7499 152.849 28.8609C153.485 28.9859 154.14 28.9908 154.778 28.8753V30.2849C154.106 30.4563 153.409 30.5051 152.719 30.4289C152.063 30.3603 151.433 30.1383 150.879 29.7809C150.326 29.4192 149.879 28.9173 149.583 28.3265C149.244 27.6072 149.081 26.8173 149.108 26.0225V17.5265H146.862V16.0001H149.105ZM169.178 30.4001H167.652L167.566 27.8401C167.193 28.688 166.57 29.4016 165.78 29.8849C164.886 30.3921 163.869 30.6414 162.842 30.6049C161.845 30.6236 160.86 30.3909 159.977 29.9281C159.126 29.4601 158.445 28.734 158.033 27.8545C157.536 26.7468 157.299 25.5399 157.342 24.3265V16.0001H158.954V24.1793C158.855 25.494 159.239 26.7997 160.034 27.8513C160.424 28.2687 160.901 28.5948 161.431 28.8064C161.961 29.018 162.532 29.1098 163.102 29.0753C163.706 29.1041 164.309 29.0005 164.868 28.7716C165.428 28.5427 165.931 28.1942 166.342 27.7505C167.225 26.6004 167.651 25.164 167.537 23.7185V16.0001H169.178V30.4001ZM184.5 19.3409L184.356 19.3985V9.66406H185.998V30.4001H184.471L184.356 27.2321C183.929 28.2021 183.235 29.031 182.356 29.6225C181.33 30.3029 180.117 30.6452 178.887 30.6017C177.663 30.6291 176.455 30.315 175.399 29.6945C174.391 29.0799 173.585 28.1839 173.079 27.1169C172.508 25.8917 172.228 24.5513 172.26 23.2001C172.227 21.8532 172.508 20.5173 173.081 19.2977C173.592 18.2342 174.397 17.3397 175.401 16.7201C176.453 16.0912 177.66 15.7717 178.886 15.7985C180.164 15.7456 181.426 16.1039 182.486 16.8209C183.384 17.4507 184.084 18.3254 184.5 19.3409ZM174.017 23.2001C173.932 24.7544 174.43 26.2844 175.414 27.4913C175.888 28.0193 176.474 28.4353 177.129 28.7093C177.784 28.9832 178.492 29.1082 179.201 29.0753C180.139 29.0917 181.063 28.8421 181.865 28.3553C182.653 27.8636 183.287 27.16 183.694 26.3249C184.157 25.35 184.384 24.2793 184.356 23.2001C184.384 22.1208 184.157 21.0501 183.694 20.0753C183.287 19.2401 182.653 18.5365 181.865 18.0449C181.063 17.5581 180.139 17.3084 179.201 17.3249C178.492 17.2919 177.784 17.4169 177.129 17.6909C176.474 17.9648 175.888 18.3808 175.414 18.9089C174.43 20.1157 173.932 21.6457 174.017 23.2001ZM199.822 16.0001H201.521L193.428 36.1601H191.815L194.206 30.2561L188.273 16.0001H190.058L195.07 28.3265L199.822 16.0001Z" fill="#171725"/>
<path d="M0 24.5305V24.4313V1.53528C0 1.49848 0 1.46142 0 1.42408C0.0119247 1.22817 0.0623477 1.03652 0.148386 0.860107C0.234425 0.683691 0.354392 0.525963 0.501428 0.395941C0.648464 0.265919 0.819686 0.166154 1.0053 0.102348C1.19092 0.0385418 1.3873 0.0119471 1.5832 0.0240843C4.98081 0.292948 8.2907 1.23669 11.3192 2.80008C13.9502 4.34998 16.3365 6.28198 18.4 8.53289C20.4693 6.27359 22.8632 4.33477 25.5032 2.78008C28.5324 1.21493 31.8434 0.269817 35.2424 8.43338e-05C35.6371 -0.0233377 36.025 0.110718 36.3211 0.372858C36.6171 0.634998 36.7971 1.00383 36.8216 1.39848C36.8216 1.42782 36.8216 1.45715 36.8216 1.48648C36.8216 1.50248 36.8216 1.51848 36.8216 1.53448V23.5465C36.8216 23.7281 36.3784 39.5313 18.828 39.9905L18.508 39.9969C18.476 39.9969 18.4435 39.9969 18.4104 39.9969H18.3504H18.0832C1.2432 40.0001 0.0144 24.6881 0 24.5305ZM2.992 24.3705C3.072 25.2801 4.272 36.3385 16.912 36.9921V32.7929C16.912 32.7785 16.912 32.7641 16.912 32.7497V21.7897C16.912 21.7753 16.912 21.7609 16.912 21.7465V11.3353C14.888 9.00285 12.5112 7.0018 9.868 5.40488C7.71615 4.28575 5.39242 3.53407 2.9928 3.18088L2.992 24.3705ZM19.9104 36.9601C30.5264 36.1753 33.0472 28.6401 33.6448 25.2001C31.3103 25.5614 29.0504 26.3016 26.9544 27.3913C24.3102 28.9865 21.9331 30.9874 19.9104 33.3209V36.9601ZM19.9104 29.0217C21.5906 27.3815 23.4704 25.9591 25.5056 24.7881C28.104 23.4326 30.92 22.5431 33.8256 22.1601V14.1657C31.4265 14.5196 29.103 15.2704 26.9504 16.3873C24.3074 17.9838 21.9317 19.9858 19.9104 22.3201V29.0217ZM19.9104 18.0177C21.5906 16.3775 23.4704 14.9551 25.5056 13.7841C28.1041 12.4286 30.92 11.5392 33.8256 11.1561V3.18408C31.4265 3.53806 29.103 4.28885 26.9504 5.40568C24.3062 7.00088 21.9292 9.00184 19.9064 11.3353L19.9104 18.0177Z" fill="#F54A24"/>
</g>
<defs>
<clipPath id="clip0_85_3780">
<rect width="201.521" height="40" fill="white"/>
</clipPath>
</defs>
</svg>
