<svg xmlns="http://www.w3.org/2000/svg" width="192" height="38" viewBox="0 0 192 38" fill="none"><path d="M62.3055 15.6925C61.7432 14.6045 60.8786 13.702 59.8158 13.0933C58.8501 12.5692 57.7681 12.2964 56.6694 12.2999C55.5096 12.288 54.369 12.5956 53.3725 13.1891C52.3781 13.7806 51.5636 14.6319 51.0165 15.6515C50.4246 16.7763 50.1291 18.0333 50.1577 19.304C50.1291 20.5731 50.4197 21.8291 51.0028 22.9566C51.5364 23.9715 52.3354 24.8226 53.3147 25.419C54.2999 26.0143 55.4318 26.3223 56.5827 26.3082C57.4056 26.3145 58.2224 26.166 58.9904 25.8704C59.7174 25.5919 60.3856 25.1795 60.9603 24.6544C61.5182 24.1471 61.9747 23.5385 62.3055 22.8608V20.9456H56.8062V18.2917H65.5614V23.0524C65.1176 24.1927 64.4528 25.2341 63.6051 26.1167C62.7287 27.0357 61.6776 27.7706 60.5135 28.2781C59.2666 28.8176 57.9199 29.088 56.5615 29.0716C55.2637 29.0817 53.9764 28.8401 52.7706 28.3602C51.6172 27.901 50.5663 27.2175 49.6789 26.3492C48.7847 25.4686 48.0775 24.4165 47.5995 23.256C47.0866 22.0024 46.8308 20.6585 46.8471 19.304C46.8323 17.9581 47.0881 16.6229 47.5995 15.3779C48.0798 14.2151 48.7866 13.1594 49.6789 12.2725C50.5633 11.3972 51.6147 10.7086 52.7706 10.2479C53.9759 9.76817 55.2627 9.5266 56.5599 9.53653C57.7611 9.53304 58.9543 9.7319 60.0894 10.1248C61.2035 10.5064 62.2351 11.0959 63.1294 11.8621C64.0236 12.6288 64.7263 13.5938 65.1814 14.6802L62.3055 15.6925ZM68.0815 9.18085H71.1732V28.88H68.0785L68.0815 9.18085ZM80.3388 29.0716C79.1069 29.0924 77.8903 28.7956 76.8063 28.2097C75.7803 27.6476 74.9365 26.8038 74.3743 25.7777C73.768 24.637 73.4664 23.3589 73.4988 22.0674C73.4644 20.7597 73.7747 19.4659 74.3987 18.316C74.9788 17.2796 75.8425 16.4301 76.8884 15.8673C77.9724 15.2877 79.1857 14.9922 80.4148 15.0085C81.65 14.9893 82.8696 15.286 83.9579 15.8704C84.999 16.437 85.8649 17.2781 86.4614 18.3024C87.1021 19.4308 87.4237 20.7124 87.3916 22.0096C87.4267 23.3236 87.1013 24.622 86.4507 25.764C85.8444 26.7984 84.9638 27.6448 83.9063 28.2097C82.8082 28.7916 81.5814 29.088 80.3388 29.0716ZM80.3084 26.3082C80.9447 26.3079 81.5705 26.1469 82.1279 25.84C82.7201 25.5129 83.2084 25.0256 83.5369 24.434C83.9292 23.6892 84.118 22.8539 84.0841 22.0127C84.1132 21.1926 83.9344 20.3784 83.5643 19.646C83.2536 19.0551 82.7785 18.5668 82.1963 18.24C81.635 17.931 81.0039 17.7709 80.3631 17.7749C79.7439 17.7698 79.1347 17.9304 78.5984 18.24C78.0384 18.5732 77.587 19.0616 77.2988 19.646C76.9432 20.4021 76.7743 21.2325 76.8063 22.0674C76.7783 22.8829 76.9423 23.6936 77.2851 24.434C77.5633 25.0166 78.0055 25.5052 78.5574 25.84C79.0879 26.1517 79.6931 26.3135 80.3084 26.3082ZM92.4836 17.2247C92.9717 16.5615 93.609 16.0225 94.3441 15.6515C95.2246 15.2046 96.2024 14.9837 97.1895 15.0085C98.3101 14.9853 99.4131 15.2896 100.363 15.884C101.294 16.4892 102.038 17.3419 102.511 18.3464C103.052 19.5012 103.319 20.7652 103.291 22.04C103.319 23.3149 103.052 24.5789 102.511 25.7336C102.036 26.741 101.287 27.5943 100.35 28.196C99.403 28.787 98.3054 29.0911 97.1895 29.0716C96.2744 29.0981 95.3657 28.9107 94.5356 28.5244C93.8596 28.2002 93.255 27.7444 92.7572 27.1837L92.5383 28.88H89.7476V9.18085H92.8393V17.3068L92.4836 17.2247ZM99.9803 22.04C100.03 20.9313 99.6754 19.8421 98.9816 18.9757C98.6729 18.5978 98.282 18.2954 97.8387 18.0915C97.3953 17.8876 96.9113 17.7877 96.4235 17.7992C95.7918 17.7924 95.1708 17.963 94.6314 18.2917C94.0738 18.6413 93.624 19.1385 93.3318 19.7281C92.9834 20.4477 92.8144 21.2409 92.8393 22.04C92.8153 22.8394 92.9854 23.6327 93.3348 24.352C93.6271 24.9416 94.0769 25.4388 94.6344 25.7884C95.1739 26.1171 95.7948 26.2877 96.4265 26.2808C96.9138 26.292 97.3973 26.1918 97.84 25.9879C98.2828 25.784 98.6732 25.4819 98.9816 25.1044C99.6754 24.238 100.03 23.1488 99.9803 22.04ZM113.633 28.88L113.359 27.208C112.95 27.7691 112.418 28.2288 111.803 28.5517C111.047 28.8939 110.221 29.0532 109.392 29.0168C108.546 29.0374 107.706 28.874 106.93 28.538C106.278 28.2542 105.723 27.7887 105.329 27.1974C104.948 26.5971 104.753 25.8974 104.768 25.1864C104.758 24.6416 104.866 24.1009 105.086 23.6022C105.306 23.1034 105.631 22.6585 106.04 22.2984C107.102 21.4368 108.41 20.9339 109.775 20.862L113.359 20.482V19.418C113.354 19.1901 113.3 18.966 113.201 18.7607C113.102 18.5554 112.96 18.3737 112.785 18.2279C112.262 17.8278 111.608 17.638 110.952 17.6959C110.279 17.6796 109.618 17.8649 109.052 18.2279C108.5 18.6034 108.113 19.1762 107.971 19.8284L105.29 18.8404C105.606 17.6779 106.342 16.6739 107.355 16.0224C108.482 15.3207 109.791 14.9685 111.117 15.01C111.843 14.9542 112.573 15.044 113.264 15.2742C113.954 15.5045 114.592 15.8705 115.139 16.3507C115.584 16.7993 115.932 17.3341 116.163 17.9222C116.393 18.5103 116.501 19.1394 116.48 19.7707V28.88H113.633ZM113.359 22.8608L110.076 23.2712C109.51 23.3123 108.969 23.5166 108.517 23.8595C108.35 23.9978 108.218 24.1716 108.128 24.3681C108.038 24.5646 107.993 24.7788 107.997 24.9949C107.996 25.2012 108.041 25.4051 108.129 25.5919C108.216 25.7788 108.344 25.9439 108.503 26.0756C108.891 26.394 109.384 26.5551 109.885 26.5271C110.542 26.5469 111.194 26.406 111.785 26.1167C112.29 25.8573 112.702 25.4458 112.961 24.9402C113.243 24.3518 113.379 23.7043 113.358 23.0524L113.359 22.8608ZM119.351 9.18085H122.443V28.88H119.351V9.18085ZM126.629 24.2836C126.777 24.8362 127.027 25.356 127.368 25.8157C127.772 26.3592 128.302 26.7959 128.913 27.088C129.733 27.4572 130.628 27.6305 131.526 27.5941C132.74 27.6931 133.945 27.3207 134.892 26.5544C135.246 26.2276 135.526 25.8293 135.715 25.386C135.903 24.9426 135.996 24.4643 135.986 23.9826C136.014 23.2831 135.796 22.596 135.37 22.04C134.918 21.4972 134.345 21.0665 133.698 20.7815C132.933 20.4297 132.142 20.137 131.332 19.906C130.584 19.7033 129.859 19.4799 129.157 19.2356C128.489 19.006 127.852 18.6983 127.257 18.3191C126.702 17.9654 126.242 17.4818 125.916 16.91C125.567 16.2494 125.397 15.5089 125.424 14.7623C125.399 13.7936 125.656 12.8386 126.162 12.0126C126.674 11.2205 127.4 10.5896 128.255 10.1932C129.254 9.73497 130.344 9.51041 131.443 9.53653C132.395 9.51459 133.343 9.67718 134.233 10.0153C134.971 10.3026 135.635 10.7514 136.176 11.3286C136.671 11.8575 137.044 12.4877 137.27 13.1754L135.82 13.7226C135.644 13.2527 135.379 12.8208 135.041 12.4504C134.629 11.9954 134.125 11.6327 133.563 11.3864C132.878 11.0886 132.135 10.9439 131.388 10.9623C130.646 10.9539 129.91 11.0982 129.227 11.3864C128.6 11.6458 128.056 12.0715 127.653 12.6176C127.254 13.1799 127.047 13.8568 127.065 14.5464C127.027 15.2413 127.263 15.9234 127.722 16.4464C128.21 16.9448 128.804 17.328 129.459 17.5682C130.18 17.8509 130.978 18.12 131.853 18.3753C132.601 18.6124 133.326 18.8678 134.028 19.1414C134.691 19.3935 135.317 19.734 135.889 20.1537C136.422 20.5497 136.861 21.0589 137.175 21.6448C137.512 22.3188 137.677 23.0664 137.653 23.82C137.659 24.7264 137.438 25.62 137.01 26.4192C136.558 27.2459 135.867 27.9178 135.028 28.348C133.948 28.8727 132.754 29.1218 131.554 29.0731C130.473 29.0991 129.399 28.9084 128.394 28.5122C127.571 28.1824 126.837 27.6675 126.246 27.0074C125.71 26.3991 125.325 25.6725 125.124 24.887L126.629 24.2836ZM141.65 15.2V11.3696H143.209V15.2H147.039V16.6501H143.209V24.7213C143.166 25.3887 143.365 26.0492 143.77 26.5818C144.138 27.0172 144.646 27.3124 145.206 27.4178C145.811 27.5366 146.433 27.5412 147.039 27.4315V28.7706C146.401 28.9335 145.738 28.9799 145.083 28.9074C144.46 28.8423 143.861 28.6314 143.335 28.2918C142.81 27.9482 142.385 27.4715 142.104 26.9101C141.781 26.2269 141.627 25.4765 141.653 24.7213V16.6501H139.518V15.2H141.65ZM160.719 28.88H159.269L159.187 26.448C158.834 27.2536 158.242 27.9316 157.491 28.3906C156.642 28.8725 155.676 29.1093 154.7 29.0746C153.753 29.0925 152.817 28.8713 151.978 28.4316C151.169 27.9871 150.523 27.2973 150.131 26.4617C149.659 25.4095 149.434 24.2628 149.474 23.1101V15.2H151.007V22.9703C150.912 24.2193 151.277 25.4597 152.033 26.4587C152.403 26.8552 152.856 27.1651 153.359 27.3661C153.863 27.5671 154.405 27.6543 154.946 27.6215C155.52 27.6489 156.093 27.5504 156.625 27.333C157.157 27.1156 157.634 26.7845 158.024 26.3629C158.863 25.2704 159.268 23.9058 159.16 22.5325V15.2H160.719V28.88ZM175.275 18.3738L175.138 18.4285V9.18085H176.698V28.88H175.248L175.138 25.8704C174.732 26.792 174.074 27.5794 173.238 28.1413C172.264 28.7877 171.111 29.113 169.943 29.0716C168.78 29.0976 167.632 28.7992 166.629 28.2097C165.672 27.6259 164.905 26.7747 164.425 25.761C163.883 24.5971 163.617 23.3237 163.647 22.04C163.616 20.7606 163.883 19.4914 164.427 18.3328C164.912 17.3225 165.677 16.4727 166.631 15.884C167.63 15.2866 168.777 14.9831 169.941 15.0085C171.156 14.9583 172.354 15.2987 173.361 15.9798C174.215 16.5782 174.879 17.4091 175.275 18.3738ZM165.316 22.04C165.236 23.5167 165.709 24.9702 166.643 26.1167C167.094 26.6183 167.65 27.0135 168.273 27.2738C168.895 27.534 169.567 27.6528 170.241 27.6215C171.132 27.6371 172.009 27.4 172.772 26.9375C173.52 26.4705 174.122 25.802 174.509 25.0086C174.95 24.0825 175.165 23.0653 175.138 22.04C175.165 21.0148 174.95 19.9976 174.509 19.0715C174.122 18.2781 173.52 17.6096 172.772 17.1426C172.009 16.6801 171.132 16.443 170.241 16.4586C169.567 16.4273 168.895 16.5461 168.273 16.8063C167.65 17.0666 167.094 17.4618 166.643 17.9634C165.709 19.1099 165.236 20.5634 165.316 22.04ZM189.83 15.2H191.445L183.757 34.352H182.224L184.495 28.7432L178.859 15.2H180.555L185.316 26.9101L189.83 15.2Z" fill="white"></path><path d="M0 23.3041V23.2098V1.45864C0 1.42368 0 1.38847 0 1.353C0.0113284 1.16688 0.0592303 0.984822 0.140967 0.817227C0.222704 0.649631 0.336672 0.49979 0.476357 0.376269C0.616041 0.252748 0.778702 0.157971 0.955039 0.097355C1.13138 0.0367394 1.31793 0.0114745 1.50404 0.0230049C4.73177 0.278425 7.87616 1.17498 10.7532 2.6602C13.2527 4.1326 15.5197 5.96801 17.48 8.10637C19.4458 5.96004 21.7201 4.11815 24.228 2.6412C27.1058 1.15431 30.2512 0.256451 33.4803 0.000204858C33.8553 -0.022046 34.2238 0.105307 34.505 0.35434C34.7862 0.603373 34.9572 0.953763 34.9805 1.32868C34.9805 1.35655 34.9805 1.38442 34.9805 1.41228C34.9805 1.42748 34.9805 1.44268 34.9805 1.45788V22.3693C34.9805 22.5418 34.5595 37.5548 17.8866 37.9911L17.5826 37.9972C17.5522 37.9972 17.5213 37.9972 17.4899 37.9972H17.4329H17.179C1.18104 38.0002 0.01368 23.4538 0 23.3041ZM2.8424 23.1521C2.9184 24.0162 4.0584 34.5217 16.0664 35.1426V31.1534C16.0664 31.1397 16.0664 31.126 16.0664 31.1123V20.7003C16.0664 20.6866 16.0664 20.673 16.0664 20.6593V10.7686C14.1436 8.55283 11.8857 6.65184 9.3746 5.13476C7.33034 4.07159 5.1228 3.35749 2.84316 3.02196L2.8424 23.1521ZM18.9149 35.1122C29.0001 34.3666 31.3948 27.2082 31.9626 23.9402C29.7447 24.2835 27.5979 24.9866 25.6067 26.0218C23.0947 27.5373 20.8365 29.4382 18.9149 31.655V35.1122ZM18.9149 27.5707C20.511 26.0125 22.2969 24.6613 24.2303 23.5488C26.6988 22.2611 29.374 21.4161 32.1343 21.0522V13.4575C29.8551 13.7937 27.6478 14.507 25.6029 15.568C23.092 17.0847 20.8351 18.9866 18.9149 21.2042V27.5707ZM18.9149 17.1169C20.511 15.5587 22.2969 14.2075 24.2303 13.095C26.6989 11.8073 29.374 10.9623 32.1343 10.5984V3.025C29.8552 3.36128 27.6479 4.07453 25.6029 5.13552C23.0909 6.65096 20.8327 8.55187 18.9111 10.7686L18.9149 17.1169Z" fill="white"></path></svg>